<?xml version="1.0" encoding="UTF-8"?>
<svg id="Layer_1" data-name="Layer 1" xmlns="http://www.w3.org/2000/svg" viewBox="0 0 633 195">
  <defs>
    <style>
      .cls-1 {
        fill: #e3dbdb;
        stroke-width: 0px;
      }
    </style>
  </defs>
  <path class="cls-1" d="m117.07,135.95c-11.23,11.42-29.46,13.79-44.36,4.93-7.86-4.68-14.74-10.99-22.34-16.15-4.77-3.24-9.78-6.55-15.18-8.35-6.71-2.24-11.73,2.11-12.22,9.18-.42,6.06,1.88,11.15,5.43,15.84,7.63,10.07,17.57,17.14,29.25,21.56,19.52,7.39,39.72,10.17,60.37,6.3,12.35-2.32,22.15-9.26,28.49-20.2,8.73-15.04,4.35-32.27-10.56-43.09-10.18-7.39-21.87-10.94-34.11-12.89-16.14-2.58-31.18-7.8-43.48-18.95-12.53-11.35-19.79-24.99-15.27-42.44,3.05-11.77,11.48-19.15,22.05-24.27,8.66-4.2,17.98-5.88,27.49-6.69,27.08-2.3,53.21.66,77.37,14.23,3.27,1.84,6.35,4,9.39,5.93-3.51,8.6-6.9,16.94-10.3,25.28-.28-.14-.56-.28-.84-.42-1.23-5.52-2.5-11.03-3.65-16.56-.6-2.87-2.46-4.38-5.14-4.71-3.84-.48-7.77-1.17-11.57-.84-7.87.69-12.52,7.87-9.4,15.14,5.08,11.84,11.32,17.1,25.44,13.58-1.76,2.57-3.03,4.82-4.68,6.73-1.62,1.87-3.64,3.4-5.8,5.36-10.39-4.85-21.28-9.83-32-15.12-1.13-.56-1.57-2.92-1.96-4.54-1.64-6.72-3.03-13.51-4.77-20.2-.33-1.26-1.68-2.65-2.9-3.21-10.56-4.84-25.75-1.62-33.62,6.97-8.18,8.93-7.86,16.16,1.06,24.51,7.56,7.08,16.8,10.99,26.64,13.34,9.88,2.36,19.97,3.89,29.91,6.02,22.6,4.84,39.78,16.56,46.27,39.72,6.13,21.87.17,41.43-14.61,58.23-12.54,14.25-28.86,21.94-47.52,23.81-33.95,3.4-65.46-4.12-93.75-23.48-12.67-8.67-22.11-20.08-25.46-35.52-3.87-17.84,8.5-35.65,25.74-37.41,6.62-.68,12.56,1.37,17.65,5.23,9.89,7.48,19.55,15.29,29.17,23.13,12.6,10.27,26.52,14.46,42.54,9.95.36-.1.79.04,1.25.07Zm11.76-119.52c4.48.86,8.8,1.7,13.36,2.57,1.1-1.9,2.24-3.87,3.95-6.82-6.14-1.26-11.47-2.36-17.3-3.55v7.8Z"/>
  <g>
    <path class="cls-1" d="m208.28,77.93l4.48-6.23c1.75-2.47,2.63-4.68,2.63-6.62,0-2.08-.88-4.35-2.63-6.82-1.95-2.73-3.44-4.77-4.48-6.14l4.48-6.33c1.75-2.47,2.63-4.74,2.63-6.82,0-1.95-.88-4.16-2.63-6.62l-4.48-6.23,4.48-6.23c1.75-2.47,2.63-4.71,2.63-6.72,0-2.14-.88-4.45-2.63-6.92l-4.48-6.23h4.38c.19.33,1.66,2.4,4.38,6.23,1.82,2.53,2.73,4.84,2.73,6.92s-.91,4.25-2.73,6.72c-2.73,3.7-4.19,5.78-4.38,6.23.26.52,1.72,2.6,4.38,6.23,1.82,2.47,2.73,4.67,2.73,6.62s-.91,4.29-2.73,6.82c-2.79,3.9-4.25,6.01-4.38,6.33l4.38,6.14c1.82,2.53,2.73,4.81,2.73,6.82s-.91,4.16-2.73,6.62c-2.66,3.64-4.12,5.71-4.38,6.23h-4.38Zm33.7,0v-23.86l10.23,23.86h25.23l-12.66-29.61c6.95-5.13,10.42-12.18,10.42-21.14s-2.96-15.65-8.86-20.45c-5.46-4.48-12.66-6.72-21.62-6.72h-27.66v.58c2.86,3.77,4.35,5.75,4.48,5.94,1.75,2.6,2.63,4.81,2.63,6.62s-.88,3.93-2.63,6.53c-1.49,1.95-2.99,3.9-4.48,5.84v1.07l4.48,6.04c1.75,2.34,2.63,4.45,2.63,6.33,0,2.01-.88,4.22-2.63,6.62l-4.48,6.04v.78c1.49,2.01,2.99,3.99,4.48,5.94,1.75,2.66,2.63,4.9,2.63,6.72s-.88,3.93-2.63,6.33c-2.92,4.03-4.42,6.11-4.48,6.23v.29h24.94Zm9.64-50.75l-9.64,8.47v-16.95l9.64,8.47Z"/>
    <path class="cls-1" d="m284.06,77.93c.06-.26,1.59-2.34,4.58-6.23,1.88-2.47,2.82-4.68,2.82-6.62,0-1.82-.91-4.09-2.73-6.82-1.56-2.01-3.12-4.06-4.68-6.14,1.56-2.08,3.08-4.19,4.58-6.33,1.88-2.79,2.82-5.07,2.82-6.82,0-1.88-.94-4.09-2.82-6.62-2.92-3.9-4.45-5.97-4.58-6.23.06-.13,1.59-2.21,4.58-6.23,1.88-2.53,2.82-4.77,2.82-6.72,0-2.08-.94-4.38-2.82-6.92-2.53-3.44-4.06-5.52-4.58-6.23h4.38l4.58,6.23c1.88,2.53,2.83,4.84,2.83,6.92,0,1.95-.94,4.19-2.83,6.72-2.99,4.03-4.51,6.11-4.58,6.23.13.26,1.66,2.34,4.58,6.23,1.88,2.53,2.83,4.74,2.83,6.62s-.94,4.22-2.83,6.82l-4.58,6.33,4.58,6.14c1.88,2.53,2.83,4.81,2.83,6.82s-.94,4.16-2.83,6.62c-2.99,3.9-4.51,5.97-4.58,6.23h-4.38Zm53.48,0v-21.92h-19.77v-7.7l14.81-20.36h-14.81v-7.11h19.77V0h-44.42v.29l4.29,6.23c1.69,2.47,2.53,4.68,2.53,6.62,0,1.75-.84,3.96-2.53,6.62-1.43,2.01-2.86,4.03-4.29,6.04v.49l4.29,6.04c1.69,2.4,2.53,4.61,2.53,6.62s-.84,4.22-2.53,6.62l-4.29,6.23v.29l4.29,6.23c1.69,2.47,2.53,4.71,2.53,6.72,0,1.82-.84,4.03-2.53,6.62-1.43,1.95-2.86,3.93-4.29,5.94v.29h44.42Z"/>
    <path class="cls-1" d="m344.16,77.93c.06-.26,1.59-2.34,4.58-6.23,1.88-2.47,2.82-4.68,2.82-6.62s-.94-4.29-2.82-6.82l-4.58-6.14,4.58-6.33c1.88-2.6,2.82-4.87,2.82-6.82s-.94-4.09-2.82-6.62c-2.92-3.9-4.45-5.97-4.58-6.23.06-.13,1.59-2.21,4.58-6.23,1.88-2.53,2.82-4.77,2.82-6.72,0-2.08-.94-4.38-2.82-6.92-2.53-3.44-4.06-5.52-4.58-6.23h4.38c1.23,1.56,2.78,3.6,4.63,6.14s2.78,4.87,2.78,7.01c0,2.01-.91,4.25-2.73,6.72-2.53,3.38-4.09,5.46-4.68,6.23l4.68,6.23c1.82,2.47,2.73,4.67,2.73,6.62s-.91,4.29-2.73,6.82c-2.6,3.51-4.16,5.62-4.68,6.33,2.08,2.73,3.64,4.77,4.68,6.14,1.82,2.47,2.73,4.74,2.73,6.82s-.91,4.22-2.73,6.62c-2.53,3.38-4.09,5.45-4.68,6.23h-4.38Zm33.61,0v-23.86c.59.19,1.53.29,2.83.29,8.6,0,15.7-2.34,21.3-7.01,5.93-5,8.89-11.72,8.89-20.16,0-8.9-2.86-15.71-8.59-20.45-5.33-4.48-12.52-6.72-21.56-6.72h-27.52v.58c1.95,2.66,3.41,4.64,4.38,5.94,1.62,2.27,2.43,4.48,2.43,6.62,0,2.01-.81,4.16-2.43,6.43-1.95,2.66-3.41,4.64-4.38,5.94v1.07c1.43,1.95,2.86,3.9,4.29,5.84,1.69,2.53,2.53,4.71,2.53,6.53,0,2.14-.81,4.35-2.43,6.62-1.95,2.73-3.41,4.74-4.38,6.04v.78c1.95,2.66,3.41,4.67,4.38,6.04,1.62,2.27,2.43,4.48,2.43,6.62,0,1.75-.84,3.93-2.53,6.53-1.43,2.01-2.86,4.03-4.29,6.04v.29h24.64Zm9.74-50.75l-9.74,8.47v-16.95l9.74,8.47Z"/>
    <path class="cls-1" d="m415.56,77.93c.06-.26,1.59-2.34,4.58-6.23,1.88-2.47,2.82-4.68,2.82-6.62,0-1.82-.91-4.09-2.73-6.82-1.56-2.01-3.12-4.06-4.68-6.14,1.56-2.08,3.08-4.19,4.58-6.33,1.88-2.79,2.82-5.07,2.82-6.82,0-1.88-.94-4.09-2.82-6.62-2.92-3.9-4.45-5.97-4.58-6.23.06-.13,1.59-2.21,4.58-6.23,1.88-2.53,2.82-4.77,2.82-6.72,0-2.08-.94-4.38-2.82-6.92-2.53-3.44-4.06-5.52-4.58-6.23h4.38c1.49,2.08,2.99,4.16,4.48,6.23,1.75,2.73,2.63,5.03,2.63,6.92,0,2.01-.88,4.25-2.63,6.72l-4.48,6.23,4.48,6.23c1.75,2.47,2.63,4.67,2.63,6.62s-.88,4.19-2.63,6.92c-1.5,2.08-2.99,4.16-4.48,6.23,2.01,2.73,3.51,4.77,4.48,6.14,1.75,2.47,2.63,4.74,2.63,6.82,0,1.95-.88,4.16-2.63,6.62l-4.48,6.23h-4.38Zm13.15-71.69c1.82,2.53,2.73,4.84,2.73,6.92s-.91,4.25-2.73,6.72c-2.73,3.7-4.19,5.78-4.38,6.23.26.52,1.72,2.6,4.38,6.23,1.82,2.47,2.73,4.67,2.73,6.62s-.91,4.29-2.73,6.82c-2.79,3.9-4.25,6.01-4.38,6.33l4.38,6.14c1.82,2.53,2.73,4.81,2.73,6.82s-.91,4.16-2.73,6.62c-2.66,3.64-4.12,5.71-4.38,6.23h24.35V22.5h17.34V0h-41.69c.19.33,1.66,2.4,4.38,6.23Z"/>
    <path class="cls-1" d="m473.03,77.93c.45-.65,1.98-2.73,4.58-6.23,1.88-2.53,2.82-4.74,2.82-6.62,0-2.01-.94-4.29-2.82-6.82l-4.58-6.14,4.58-6.33c1.88-2.6,2.82-4.87,2.82-6.82s-.94-4.09-2.82-6.62c-2.53-3.44-4.06-5.52-4.58-6.23l4.58-6.23c1.88-2.53,2.82-4.77,2.82-6.72,0-2.08-.94-4.38-2.82-6.92-2.53-3.44-4.06-5.52-4.58-6.23h4.42c1.24,1.56,2.8,3.6,4.67,6.14,1.87,2.53,2.8,4.87,2.8,7.01,0,2.01-.92,4.25-2.76,6.72-2.57,3.38-4.14,5.46-4.74,6.23l4.74,6.23c1.84,2.47,2.76,4.67,2.76,6.62s-.92,4.29-2.76,6.82c-2.63,3.51-4.21,5.62-4.74,6.33,2.1,2.73,3.68,4.77,4.74,6.14,1.84,2.47,2.76,4.74,2.76,6.82s-.92,4.22-2.75,6.62c-2.55,3.38-4.12,5.45-4.71,6.23h-4.42ZM481.8.29c1.49,2.01,2.99,4.03,4.48,6.04,1.75,2.66,2.63,4.94,2.63,6.82,0,2.01-.88,4.25-2.63,6.72l-4.48,6.23,4.48,6.23c1.75,2.47,2.63,4.67,2.63,6.62,0,1.82-.88,4.09-2.63,6.82-.06.13-1.56,2.14-4.48,6.04v.29l4.48,6.23c1.75,2.47,2.63,4.71,2.63,6.72s-.88,4.16-2.63,6.62l-4.48,6.23h24.94V0h-24.94v.29Z"/>
    <path class="cls-1" d="m208.09,194.81c.06-.26,1.59-2.34,4.58-6.23,1.88-2.47,2.82-4.68,2.82-6.62,0-1.82-.91-4.09-2.73-6.82-1.56-2.01-3.12-4.06-4.68-6.14,1.56-2.08,3.08-4.19,4.58-6.33,1.88-2.79,2.82-5.07,2.82-6.82,0-1.88-.94-4.09-2.82-6.62-2.92-3.9-4.45-5.97-4.58-6.23.06-.13,1.59-2.21,4.58-6.23,1.88-2.53,2.82-4.77,2.82-6.72,0-2.08-.94-4.38-2.82-6.92-2.53-3.44-4.06-5.52-4.58-6.23h4.38c1.56,2.08,3.12,4.16,4.68,6.23,1.82,2.79,2.73,5.1,2.73,6.92,0,1.95-.94,4.19-2.82,6.72-2.99,4.03-4.51,6.11-4.58,6.23.13.26,1.66,2.34,4.58,6.23,1.88,2.53,2.82,4.74,2.82,6.62,0,1.75-.94,4.03-2.82,6.82-1.49,2.14-3.02,4.25-4.58,6.33,1.56,2.08,3.12,4.12,4.68,6.14,1.82,2.73,2.73,5,2.73,6.82,0,1.95-.94,4.16-2.82,6.62-2.99,3.9-4.51,5.98-4.58,6.23h-4.38Zm33.61-77.93h-24.84v.29c1.47,2.01,2.95,4.03,4.42,6.04,1.73,2.66,2.59,4.94,2.59,6.82,0,2.01-.86,4.25-2.59,6.72l-4.42,6.23,4.42,6.23c1.73,2.47,2.59,4.67,2.59,6.62,0,1.82-.86,4.09-2.59,6.82-.06.13-1.54,2.14-4.42,6.04v.29l4.42,6.23c1.73,2.47,2.59,4.71,2.59,6.72s-.86,4.16-2.59,6.62l-4.42,6.23h45.29v-21.72h-20.45v-56.2Z"/>
    <path class="cls-1" d="m267.6,194.52l4.68-6.23c1.82-2.4,2.73-4.61,2.73-6.62s-.91-4.25-2.73-6.72c-2.08-2.73-3.64-4.77-4.68-6.14,2.99-3.96,4.54-6.04,4.68-6.23,1.82-2.79,2.73-5.07,2.73-6.82,0-2.01-.91-4.22-2.73-6.62-3.05-4.09-4.61-6.17-4.68-6.23l4.68-6.23c1.82-2.4,2.73-4.61,2.73-6.62,0-2.14-.91-4.45-2.73-6.92l-4.68-6.23h4.38c1.49,2.08,2.99,4.16,4.48,6.23,1.75,2.73,2.63,5.03,2.63,6.92s-.88,4.16-2.63,6.62l-4.48,6.23c1.49,2.01,2.99,4.06,4.48,6.14,1.75,2.73,2.63,4.97,2.63,6.72s-.88,4.03-2.63,6.82c-.13.19-1.62,2.27-4.48,6.23,1.49,2.01,2.99,4.03,4.48,6.04,1.75,2.66,2.63,4.94,2.63,6.82,0,2.01-.88,4.22-2.63,6.62l-4.48,6.23h-4.38Zm65.26-72.08c-4.35-3.7-10.23-5.55-17.63-5.55h-38.87c1.47,2.08,2.95,4.16,4.42,6.23,1.73,2.73,2.59,5.03,2.59,6.92s-.86,4.16-2.59,6.62l-4.42,6.23c1.47,2.01,2.95,4.06,4.42,6.14,1.73,2.73,2.59,4.97,2.59,6.72s-.86,4.03-2.59,6.82c-.13.19-1.6,2.27-4.42,6.23,1.47,2.01,2.95,4.03,4.42,6.04,1.73,2.66,2.59,4.94,2.59,6.82,0,2.01-.87,4.22-2.6,6.62l-4.42,6.23h-.29v.29h24.84v-16.17h14.32v16.17h24.64v-55.52c0-7.27-2.34-12.89-7.01-16.85Zm-17.63,33.51h-14.32l6.87-16.37,7.45,16.37Z"/>
    <path class="cls-1" d="m348.26,194.81l4.48-6.23c1.75-2.47,2.63-4.68,2.63-6.62,0-2.08-.88-4.35-2.63-6.82-1.95-2.73-3.44-4.77-4.48-6.14l4.48-6.33c1.75-2.47,2.63-4.74,2.63-6.82,0-1.95-.88-4.16-2.63-6.62l-4.48-6.23,4.48-6.23c1.75-2.47,2.63-4.71,2.63-6.72,0-2.14-.88-4.45-2.63-6.92l-4.48-6.23h4.38c1.49,2.08,2.99,4.16,4.48,6.23,1.75,2.73,2.63,5.03,2.63,6.92,0,2.01-.88,4.25-2.63,6.72l-4.48,6.23,4.48,6.23c1.75,2.47,2.63,4.67,2.63,6.62s-.88,4.19-2.63,6.91c-1.49,2.08-2.99,4.16-4.48,6.23,2.01,2.73,3.51,4.77,4.48,6.14,1.75,2.47,2.63,4.74,2.63,6.82,0,1.95-.88,4.16-2.63,6.62l-4.48,6.23h-4.38Zm13.1-71.79c1.85,2.53,2.78,4.87,2.78,7.01,0,2.01-.91,4.25-2.73,6.72-2.53,3.38-4.09,5.46-4.68,6.23l4.68,6.23c1.82,2.47,2.73,4.67,2.73,6.62s-.91,4.29-2.73,6.82c-2.08,2.79-3.64,4.9-4.68,6.33,2.08,2.73,3.64,4.77,4.68,6.14,1.82,2.47,2.73,4.74,2.73,6.82s-.91,4.22-2.73,6.62c-2.53,3.38-4.09,5.46-4.68,6.23h23.86v-37.31l22.5,37.31h23.86v-77.93h-23.86v36.53l-22.5-36.53h-23.86c1.23,1.56,2.78,3.6,4.63,6.14Z"/>
    <path class="cls-1" d="m434.75,194.81l4.48-6.23c1.75-2.47,2.63-4.68,2.63-6.62,0-2.08-.88-4.35-2.63-6.82-1.95-2.73-3.44-4.77-4.48-6.14l4.48-6.33c1.75-2.47,2.63-4.74,2.63-6.82,0-1.95-.88-4.16-2.63-6.62l-4.48-6.23,4.48-6.23c1.75-2.47,2.63-4.71,2.63-6.72,0-2.14-.88-4.45-2.63-6.92l-4.48-6.23h4.38c1.49,2.08,2.99,4.16,4.48,6.23,1.75,2.73,2.63,5.03,2.63,6.92,0,2.01-.88,4.25-2.63,6.72l-4.48,6.23,4.48,6.23c1.75,2.47,2.63,4.67,2.63,6.62s-.88,4.19-2.63,6.91c-1.49,2.08-2.99,4.16-4.48,6.23,2.01,2.73,3.51,4.77,4.48,6.14,1.75,2.47,2.63,4.74,2.63,6.82,0,1.95-.88,4.16-2.63,6.62l-4.48,6.23h-4.38Zm38.09,0c11.17,0,20.32-3.7,27.47-11.1,7.14-7.4,10.71-16.69,10.71-27.86s-3.59-20.37-10.76-27.81c-7.18-7.43-16.32-11.15-27.42-11.15h-29.32c.19.33,1.66,2.4,4.38,6.23,1.82,2.53,2.73,4.84,2.73,6.92s-.91,4.25-2.73,6.72c-2.73,3.7-4.19,5.78-4.38,6.23.26.52,1.72,2.6,4.38,6.23,1.82,2.47,2.73,4.67,2.73,6.62s-.91,4.29-2.73,6.82c-2.79,3.9-4.25,6.01-4.38,6.33l4.38,6.14c1.82,2.53,2.73,4.81,2.73,6.82s-.91,4.16-2.73,6.62c-2.66,3.64-4.12,5.72-4.38,6.23h29.32Zm13.15-38.96l-18.12,16.17v-32.34l18.12,16.17Z"/>
    <path class="cls-1" d="m517.74,194.81c.45-.65,1.98-2.73,4.58-6.23,1.88-2.53,2.82-4.74,2.82-6.62,0-2.01-.94-4.29-2.82-6.82l-4.58-6.14,4.58-6.33c1.88-2.6,2.82-4.87,2.82-6.82s-.94-4.09-2.82-6.62c-2.53-3.44-4.06-5.52-4.58-6.23l4.58-6.23c1.88-2.53,2.82-4.77,2.82-6.72,0-2.08-.94-4.38-2.82-6.92-2.53-3.44-4.06-5.52-4.58-6.23h4.42c1.24,1.56,2.8,3.6,4.67,6.14,1.87,2.53,2.8,4.87,2.8,7.01,0,2.01-.92,4.25-2.76,6.72-2.57,3.38-4.14,5.46-4.74,6.23l4.74,6.23c1.84,2.47,2.76,4.67,2.76,6.62s-.92,4.29-2.76,6.82c-2.63,3.51-4.21,5.62-4.74,6.33,2.1,2.73,3.68,4.77,4.74,6.14,1.84,2.47,2.76,4.74,2.76,6.82s-.92,4.22-2.75,6.62c-2.55,3.38-4.12,5.46-4.71,6.23h-4.42Zm8.77-77.63c1.49,2.01,2.99,4.03,4.48,6.04,1.75,2.66,2.63,4.94,2.63,6.82,0,2.01-.88,4.25-2.63,6.72l-4.48,6.23,4.48,6.23c1.75,2.47,2.63,4.67,2.63,6.62,0,1.82-.88,4.09-2.63,6.82-.06.13-1.56,2.14-4.48,6.04v.29l4.48,6.23c1.75,2.47,2.63,4.71,2.63,6.72s-.88,4.16-2.63,6.62l-4.48,6.23h24.94v-77.93h-24.94v.29Z"/>
    <path class="cls-1" d="m559.72,194.52l4.68-6.23c1.82-2.4,2.73-4.61,2.73-6.62s-.91-4.25-2.73-6.72c-2.08-2.73-3.64-4.77-4.68-6.14,2.99-3.96,4.54-6.04,4.68-6.23,1.82-2.79,2.73-5.07,2.73-6.82,0-2.01-.91-4.22-2.73-6.62-3.05-4.09-4.61-6.17-4.68-6.23l4.68-6.23c1.82-2.4,2.73-4.61,2.73-6.62,0-2.14-.91-4.45-2.73-6.92l-4.68-6.23h4.38c1.49,2.08,2.99,4.16,4.48,6.23,1.75,2.73,2.63,5.03,2.63,6.92s-.88,4.16-2.63,6.62l-4.48,6.23c1.49,2.01,2.99,4.06,4.48,6.14,1.75,2.73,2.63,4.97,2.63,6.72s-.88,4.03-2.63,6.82c-.13.19-1.62,2.27-4.48,6.23,1.49,2.01,2.99,4.03,4.48,6.04,1.75,2.66,2.63,4.94,2.63,6.82,0,2.01-.88,4.22-2.63,6.62l-4.48,6.23h-4.38Zm65.26-72.08c-4.35-3.7-10.23-5.55-17.63-5.55h-38.87c1.47,2.08,2.95,4.16,4.42,6.23,1.73,2.73,2.59,5.03,2.59,6.92s-.87,4.16-2.59,6.62l-4.42,6.23c1.47,2.01,2.95,4.06,4.42,6.14,1.73,2.73,2.59,4.97,2.59,6.72s-.87,4.03-2.59,6.82c-.13.19-1.6,2.27-4.42,6.23,1.47,2.01,2.95,4.03,4.42,6.04,1.73,2.66,2.59,4.94,2.59,6.82,0,2.01-.87,4.22-2.59,6.62l-4.42,6.23h-.29v.29h24.84v-16.17h14.32v16.17h24.64v-55.52c0-7.27-2.34-12.89-7.01-16.85Zm-17.63,33.51h-14.32l6.86-16.37,7.45,16.37Z"/>
  </g>
  <path class="cls-1" d="m291.73,110.61h-15.27l19.83-14.31c.7-.51,1.6-.79,2.52-.79h11.84c.92,0,1.82.28,2.52.79l19.83,14.31h-15.55l-11.12-7.38c-1.03-.68-2.46-.68-3.49,0l-11.12,7.38Z"/>
</svg>